<?xml version="1.0" encoding="utf-8"?>
<!-- Generator: Adobe Illustrator 17.1.0, SVG Export Plug-In . SVG Version: 6.00 Build 0)  -->
<!DOCTYPE svg PUBLIC "-//W3C//DTD SVG 1.1//EN" "http://www.w3.org/Graphics/SVG/1.1/DTD/svg11.dtd">
<svg version="1.1" id="Layer_1" xmlns="http://www.w3.org/2000/svg" xmlns:xlink="http://www.w3.org/1999/xlink" x="0px" y="0px"
	 viewBox="0 0 458 236" style="enable-background:new 0 0 458 236;" xml:space="preserve">
<linearGradient id="SVGID_1_" gradientUnits="userSpaceOnUse" x1="229.0001373" y1="235.0987396" x2="229.0001373" y2="0.9012684">
	<stop  offset="0" style="stop-color:#35BAC1"/>
	<stop  offset="1" style="stop-color:#4CD6B4"/>
</linearGradient>
<path style="fill:url(#SVGID_1_);" d="M232.7943878,43.9005508c-2.5290527-2.4624023-3.7949219-5.5119019-3.7949219-9.1450195
	c0-3.5025024,1.2658691-6.4852905,3.7949219-8.9505005c2.5291748-2.4630127,5.5446777-3.6970825,9.0478516-3.6970825
	c3.5019531,0,6.5185547,1.2340698,9.0477295,3.6970825c2.5291748,2.46521,3.7938232,5.447998,3.7938232,8.9505005
	c0,3.6331177-1.2646484,6.6826172-3.7938232,9.1450195c-2.5291748,2.4658813-5.5457764,3.6970825-9.0477295,3.6970825
	C238.3390656,47.5976334,235.3235626,46.3664322,232.7943878,43.9005508z M456.1686401,127.8650284
	c-0.8706055,3.0429764-2.0368652,6.3024368-3.5043945,9.7783279c-1.4663086,3.4782715-4.0480957,6.9821777-7.7409668,10.5115967
	c-3.6945801,3.5294189-8.8815918,7.0081787-15.5632324,10.4301147c-6.6818848,3.421875-15.6450195,6.5993652-26.8903809,9.5343628
	c-11.2443848,2.9330444-25.1508789,5.5648804-41.7194824,7.9029541c-16.567627,2.3362427-36.5307617,4.1552124-59.8911133,5.4606934
	c-23.3583984,1.3035889-44.3000488,2.8762207-62.8249359,4.7254639c-18.5231934,1.84552-35.0926514,3.9922485-49.7059326,6.4364624
	c-14.6113281,2.446167-27.5419922,5.1347656-38.7873535,8.0678711c-11.2442627,2.9330444-21.2921143,6.1654663-30.1491776,9.6973267
	c-8.8531494,3.5280151-16.8111572,7.3591919-23.8747559,11.487793c-7.0617676,4.1286621-13.6895752,8.5282593-19.8825684,13.2007446
	c0.435791-7.1697388-0.3514404-13.6346436-2.3626709-19.3927612c-2.0095215-5.7600098-4.861084-10.7299194-8.5557861-14.9116211
	c-3.6928711-4.1836548-8.0924072-7.5524902-13.2006836-10.1047363c-5.1053467-2.5540771-10.512085-4.293457-16.21521-5.2142944
	c-5.7040997-0.9246826-11.5438213-1.0061035-17.5197735-0.2444458c-5.9741211,0.7578735-11.6773682,2.3873901-17.1115723,4.8884277
	c0.7607422-1.4134521,2.6887207-3.6663208,5.7856445-6.7623291c3.0960698-3.0979004,8.1228027-6.3568726,15.074707-9.7788086
	c6.9536133-3.421875,16.2426739-6.7092896,27.8669415-9.8602295c11.6270752-3.151001,26.3483887-5.4341431,44.1655273-6.843811
	c9.9967041-0.7617188,21.8378906-1.1975098,35.5274734-1.3035889c13.6885986-0.1099243,28.4656982-0.0284424,44.3276367,0.2443848
	c15.8637695,0.269043,32.4049072,0.6517944,49.6243896,1.140625c17.2213135,0.4888916,34.3327484,0.9208984,51.3351898,1.3035889
	c17.0045166,0.3789673,33.4897461,0.6764526,49.4605713,0.8962402c15.9718018,0.2160034,30.6663818,0.1345215,44.0841064-0.2444458
	c13.4196777-0.3826904,25.1252441-1.1159668,35.1191406-2.1997681c9.9975586-1.0875854,17.5471191-2.6640015,22.6535645-4.7264404
	c5.9731445-2.5006104,10.8625488-5.5127563,14.6672363-9.0446167c3.8017578-3.5294189,6.6818848-7.2521362,8.637207-11.1638184
	c1.9553223-3.9112625,3.0686035-7.8224564,3.3405762-11.7337112c0.2700195-3.9112549-0.1091309-7.4151001-1.140625-10.5115967
	c-1.0336914-3.0964966-2.6887207-5.5942383-4.9709473-7.496521c-2.28125-1.8995361-4.9443359-2.8521118-7.9855957-2.8521118
	c-2.1740723,0-6.2041016,0.5869141-8.7563477,2.7587891c-0.6137695,0.5224609-1.2089844,1.1277466-1.7878418,1.8067017
	c-0.1169434,0.3280029-0.2573242,0.6772461-0.4291992,1.0552979c-1.4284668,3.3746948-3.1467285,6.9077148-5.1555176,10.6047974
	c-2.0134277,3.6970215-4.314209,7.2662964-6.9077148,10.7014771c-2.5959473,3.4386063-5.5458984,6.6159134-8.8532715,9.5341873
	c-3.307373,2.9188232-7.0378418,5.3512573-11.1877441,7.296814c-2.4658203,1.2985229-5.0595703,2.2073364-7.7832031,2.7242432
	c-2.7250977,0.5197754-5.4182129,0.6503906-8.0751953,0.3890991c-2.6604004-0.2584229-5.1894531-0.9727173-7.588623-2.140625
	c-2.4013672-1.1672974-4.3786621-2.7236938-5.9348145-4.6697998c-3.2407227-4.1500244-5.2836914-9.1116943-6.128418-14.8848953
	c-0.1813965-1.2410889-0.237793-2.5311279-0.2121582-3.8535156c-0.7504883,1.1222534-1.517334,2.2194214-2.3146973,3.2698364
	c-4.0869141,5.3841629-8.4643555,9.8259964-13.1347656,13.3284988c-4.6691895,3.5025024-9.4707031,6.0650635-14.3989258,7.6859741
	c-4.930542,1.6231079-9.6314697,2.3012085-14.1062012,2.0427856c-4.4758301-0.2584839-8.6281738-1.392395-12.4536133-3.4052124
	c-3.826416-2.0094604-6.9732666-4.9616699-9.4367676-8.8532715c-2.4624023-3.7609253-3.7938232-8.2695999-3.9882813-13.5230179
	c-0.0334473-0.8998413-0.0300293-1.8074951-0.0100098-2.71875c-1.8981934,3.8470459-4.088623,7.6738281-6.6047363,11.474678
	c-3.0495605,4.605896-6.3897705,8.5947876-10.0206299,11.9666138c-3.6331787,3.3746948-7.4608154,5.05896-11.4796143,5.05896
	c-6.4881439,0-11.2558441-2.6569824-14.3018646-7.9777832c-3.0494385-5.3173828-4.6363525-12.3856888-4.7664795-21.208931
	c-0.0151367-1.0386353-0.0090332-2.0985107,0.0118408-3.1731567c-0.8769531,1.7685547-1.8446045,3.628418-2.9290771,5.6055908
	c-1.8188477,3.3079224-3.8920898,6.6152954-6.2268066,9.9232864c-2.3344727,3.3079224-4.8342285,6.2601318-7.4912109,8.8532104
	c-2.6604004,2.5964966-5.4814453,4.605896-8.4642334,6.0322266c-2.9849854,1.4285889-6.0322266,1.817749-9.1450195,1.1672974
	c-3.8922119-0.647522-6.8771973-2.3651123-8.9505615-5.1561279c-2.0732422-2.788208-3.4351807-6.2573242-4.0866699-10.4102173
	c-0.5258789-3.3734818-0.5742188-7.1394119-0.1589355-11.2857132c-1.789917,3.4376221-3.8735352,6.8753052-6.2590332,10.3129349
	c-3.2440186,4.6697998-6.9743652,8.7254028-11.1889648,12.1611938c-4.2167969,3.4385986-8.9833984,5.156189-14.3006592,5.156189
	c-4.8016357,0-8.7265625-1.2645874-11.772583-3.7943726c-3.0495605-2.5291748-4.8638916-6.645813-5.4475098-12.3557129
	c-0.5847168-5.7064896,0.291748-13.2617264,2.6264648-22.6680984c2.3345947-9.4035034,6.6158447-21.0449219,12.8415527-34.9265747
	c3.7609863-8.4307251,6.9382324-16.0194092,9.5341797-22.7659302c2.5935059-6.743103,4.378418-12.5163574,5.3513184-17.3173218
	c0.9726563-4.7970581,1.1345215-8.4641724,0.4863281-10.9933472c-0.6503906-2.5297241-2.2712402-3.7943115-4.8637695-3.7943115
	c-2.8549805,0-5.7404785,0.8754883-8.6586914,2.6270142c-2.9194336,1.7509766-5.9350586,4.1195068-9.0478516,7.1016846
	c0.5158691,4.9317017,0.4523926,10.4769897-0.1956787,16.6364746c-0.6503906,6.1628418-1.817749,12.7142944-3.5018311,19.6525269
	c-1.6877441,6.9405518-3.8605957,14.1734619-6.5186768,21.6953735c-2.6604004,7.5247192-5.7392578,15.0494385-9.2423096,22.5708008
	c-6.7459717,14.3984985-13.1027908,24.6475296-19.068367,30.7431107c-5.9677734,6.098999-10.701416,8.6253052-14.2045898,7.5886841
	c-3.5019531-1.0366821-5.2868652-5.350769-5.3500977-12.9393921c-0.0667725-7.5886917,2.4318848-17.8676834,7.491333-30.8404007
	c2.0733643-5.5758667,4.4747314-11.3162842,7.1983643-17.2200928c2.7248535-5.901062,5.6103516-11.7720947,8.6586914-17.6091919
	c3.0473633-5.8377075,6.2573242-11.5441895,9.632576-17.1228027c3.3708496-5.5758667,6.8737793-10.829895,10.506958-15.7609863
	c0.6470947-6.0955811,0.6141357-11.0571899-0.09729-14.8848877c-0.7148438-3.8248291-2.5629883-5.7404165-5.5458984-5.7404165
	c-2.4658203,0-5.1894531,1.5264273-8.1722488,4.5725698c-2.9849854,3.0494385-6.0311279,6.9744263-9.1450195,11.7720337
	c-3.112915,4.8004761-6.1295166,10.1511841-9.0477295,16.0527954c-2.918335,5.9038696-5.6431885,11.7714844-8.1723633,17.6091919
	c-2.5291748,5.8370972-4.7370605,11.2850952-6.6159668,16.3446045c-0.5732422,1.541626-1.0888672,2.9749756-1.5595703,4.3239746
	c-0.6169434,2.196167-1.2956543,4.6090698-2.0395508,7.2529907c-1.298584,4.6064453-2.888916,9.4069214-4.7675781,14.3990479
	c-1.8811035,4.9949951-4.1196289,9.9232788-6.7121582,14.7876587c-2.5969238,4.8643188-5.6430664,9.1784134-9.1450195,12.9393997
	c-3.5030518,3.7637939-7.4914551,6.746521-11.9672852,8.9505005c-4.4746094,2.2073364-9.50354,3.1134033-15.0799561,2.7243042
	c-5.4473877-0.3891602-9.6009521-1.946106-12.4523907-4.6698608c-2.8549805-2.7242432-4.5426025-5.8037109-5.0594482-9.2423096
	c-0.5192871-3.43573,0.0305176-6.8743362,1.6547852-10.3129349c1.619751-3.4351807,4.1160889-6.1289673,7.4902325-8.0750122
	c1.5576172-0.9060669,3.4057617-1.2645874,5.5458984-1.0700684c2.1400146,0.1945801,3.5324707,0.74823,4.18396,1.6542969
	c-1.9466553,0.3890991-3.5358887,1.5258179-4.7677002,3.4046021c-1.2340088,1.8822021-1.9455566,3.861084-2.1400146,5.9349976
	c-0.1945801,2.0761719,0.194458,3.9583206,1.1673584,5.6425858c0.9726563,1.6876221,2.5595703,2.5297241,4.7664795,2.5297241
	c2.9827881,0.1306152,5.7076416-0.744873,8.1722412-2.6270142c2.463623-1.8787918,4.7009277-4.3112869,6.7131348-7.2968216
	c2.0100098-2.9821777,3.8243408-6.3874512,5.4487305-10.2150879c1.6196289-3.8248901,3.0799561-7.6859741,4.3773193-11.5775757
	c1.2950439-3.8916016,2.4329834-7.6859131,3.4057617-11.3823853c0.9727783-3.6970215,1.8482666-6.9077148,2.6264648-9.632019
	c1.4263916-5.447998,2.885498-10.6680908,4.37854-15.6630859c1.4897461-4.9921875,2.9488525-9.7592773,4.3774414-14.3018188
	c-5.1895752,4.6697998-9.6314697,9.0817261-13.3291016,13.2312012c-3.6965332,4.1534424-6.420166,8.0111084-8.1711426,11.5775146
	c-1.7520752,3.5692749-2.4331055,6.8771973-2.0439453,9.9232788c0.3891602,3.0494995,2.1412354,5.9349976,5.2540283,8.6586914
	c-1.9454346,1.2985229-4.2507324,2.0767212-6.9077148,2.3352051c-2.6602783,0.2612915-5.2235107,0.0333252-7.6859131-0.6809692
	c-2.4658203-0.7114258-4.6386719-1.9127197-6.5185547-3.5997314c-1.8811035-1.6842651-3.0822754-3.8248901-3.5992432-6.4213257
	c-0.7781982-4.5386353,0.2579346-8.6886597,3.112793-12.4524536c2.8526611-3.7609863,6.6464844-7.4246216,11.3835449-10.9938965
	c4.7337646-3.5664063,9.9866943-7.1022339,15.7609863-10.604187c5.7697754-3.5025024,11.1878662-7.3273315,16.2462158-11.4802246
	c1.0371094-2.7243042,1.9771729-5.2839966,2.8220215-7.6859131c0.8415527-2.3985596,1.717041-4.6364746,2.6264648-6.7126465
	c1.1673584-2.8521118,3.015625-5.6431274,5.5458984-8.3668213c2.5291748-2.7243032,4.699707-4.7337027,6.5175781-6.0322256
	c3.1138916-2.2039795,5.8681641-3.6297612,8.2695313-4.2807012c2.3990479-0.647583,4.2144775-0.5836792,5.4484863,0.194519
	c1.2318115,0.7781982,1.7182617,2.2713017,1.4592285,4.4752812c-0.2613525,2.2073364-1.4919434,4.9316406-3.6965332,8.1723013
	c-0.2612305,0.6509399-0.6809082,1.4591064-1.2646484,2.4324341c-0.5834961,0.9727783-1.2011719,2.1734619-1.8493652,3.5997925
	c-1.4284668,2.5958862-2.6931152,5.3840942-3.7937012,8.3668213c-1.1040039,2.9850464-2.2373047,6.0984497-3.4046631,9.3396606
	c2.3345947-4.6697998,4.8309326-9.1450806,7.4902344-13.4257813c2.6580811-4.2807007,5.3513184-8.1055908,8.0750732-11.4802246
	c2.7248535-3.3718863,5.5129395-6.0622549,8.3668213-8.0750723c2.8526688-2.0093999,5.7076492-3.0800176,8.561409-3.2106328
	c4.28125-0.1278076,7.7504883,1.0400391,10.4107666,3.5025029c2.6569824,2.4658203,4.6998291,5.9044189,6.128418,10.312377
	c4.28125-4.1495361,8.5614014-7.4240713,12.8426514-9.8259878c4.2801514-2.39856,8.4946289-3.599793,12.6469727-3.599793
	c7.2640381,0,12.1617432,2.0128179,14.690918,6.032227c2.5291748,4.0222158,3.5019531,9.2423086,2.9182129,15.663085
	c-0.5834961,6.4213257-2.2700195,13.590332-5.0583496,21.5007935c-2.7915039,7.9138794-5.8071289,15.7609863-9.0476074,23.5441895
	c-9.4709473,22.4429932-15.4692383,39.0460205-17.9984131,49.8120117
	c-2.5302734,10.7681961-0.8121338,16.1494827,5.1556396,16.1494827c2.5936279,0,5.3513184-1.295166,8.2695313-3.8916016
	c2.9194336-2.5930786,5.7404785-5.7398682,8.4641113-9.4368973c2.723877-3.6970825,5.1567383-7.491394,7.296875-11.3823853
	c2.0222168-3.6772461,3.5944824-6.8145752,4.7490234-9.449646c0.5036621-1.8842163,1.045166-3.7863159,1.6700439-5.7276611
	c1.8787842-5.8371582,4.2474365-11.8026123,7.1022949-17.901001c2.8515625-6.0961914,6.0955811-12.0639038,9.7286377-17.901062
	c1.9455566-3.2412109,4.213501-4.7670898,6.8105469-4.5725098c2.5925293,0.194519,4.8637695,1.2645874,6.8093262,3.210083
	c1.9465332,1.946106,3.3084717,4.3480225,4.0866699,7.199585c0.7781982,2.8549194,0.3891602,5.3840942-1.1672363,7.588623
	c-1.9455566,2.7236938-4.0223389,6.0316772-6.2268066,9.9232788c-2.2067871,3.8916016-4.2802734,7.9472046-6.2268066,12.1611328
	c-1.9455566,4.2167969-3.7304688,8.4335938-5.3502197,12.647583c-1.6242676,4.2167969-2.8548584,8.0750122-3.6976318,11.5775146
	c-0.8449707,3.5019531-1.2000732,6.4541702-1.0700684,8.8532791c0.1279297,2.4013062,0.9060059,3.8610229,2.3347168,4.3779297
	c2.2045898,0.7781982,4.7336426,0.2612915,7.588623-1.5569458c2.8526611-1.8148804,5.706543-4.3779907,8.5614014-7.6859207
	c2.8526611-3.307373,5.5457764-7.0044556,8.0750732-11.0905762c2.5302734-4.0861816,4.6364746-7.944397,6.3239746-11.5775757
	c0.0246582-0.0560303,0.0482178-0.1072998,0.0727539-0.1627197c0.5737305-5.4086914,1.5125732-11.1828613,2.8444824-17.3491821
	c2.4624023-11.4129028,6.0322266-23.2822876,10.7014008-35.6074829c4.1501465-10.8965454,8.786499-20.0082397,13.9127197-27.3384399
	c5.1228027-7.3267822,10.1177979-12.9393911,14.9827881-16.8304443c4.8637695-3.8916016,9.208374-6.0627441,13.0360107-6.5186157
	c3.8254395-0.4530029,6.5479736,0.7142944,8.1722412,3.5025024c1.619873,2.7910156,1.7509766,7.1690068,0.3891602,13.1339722
	c-1.3618164,5.9677124-4.833252,13.4257202-10.409668,22.3762207c-3.112793,4.9310913-6.2268066,9.6987915-9.3395996,14.3012695
	c-3.112793,4.6064453-6.0649414,8.9205322-8.8532715,12.9393921c-2.7915039,4.0228271-5.3511963,7.6220093-7.685791,10.7993164
	c-2.3347168,3.1801147-4.1535645,5.6759033-5.4486084,7.491333c-2.0755615,7.0044556-3.6658936,13.6536865-4.7664795,19.9438477
	c-1.1040039,6.2935181-1.7216797,11.7720337-1.8483887,16.4418945c-0.1311035,4.6697998,0.2580566,8.3668289,1.1674805,11.0911331
	c0.9060059,2.7236938,2.3979492,4.0861206,4.4746094,4.0861206c2.2045898,0,4.6704102-1.1678467,7.394043-3.5025024
	c2.7237549-2.335144,5.3818359-5.1867065,7.9777832-8.561409c2.59375-3.3718262,4.9621582-6.9077148,7.1022949-10.6047363
	c1.9711914-3.4047852,3.5100098-6.3776855,4.6560059-8.9577026c0.0703125-0.2572632,0.1325684-0.5128784,0.206665-0.7709961
	c1.6208496-5.6425781,3.9893799-11.25177,7.1021729-16.8309937c3.112915-5.5758057,6.7132568-10.506958,10.7988281-14.7876587
	c4.0866699-4.2807007,8.4946289-7.7164307,13.2316895-10.3129272c4.7337646-2.5930786,9.6315918-3.760376,14.6899414-3.5018921
	c5.0593262,0.2612915,9.0476074,1.4285889,11.967041,3.5018921c2.918457,2.0767212,4.9916992,4.6697998,6.2255859,7.7832031
	c1.2319336,3.1134033,1.7182617,6.5853882,1.4604492,10.4102173c-0.2624512,3.8276978-1.1379395,7.5581055-2.6276855,11.1878662
	c-1.4919434,3.6331177-3.4384766,7.0383301-5.8364258,10.2156372c-2.4025879,3.1801758-5.0935059,5.6759644-8.0749512,7.4908447
	c-3.7644043,2.2073364-7.4609375,3.4719238-11.0917969,3.7943115c-3.6331787,0.3251953-7.0378418,0.0673218-10.2150879-0.7781982
	c-3.1796875-0.8421631-6.0650635-2.0733643-8.6586914-3.6970825c-2.5959473-1.6203003-4.6691895-3.3378906-6.2268066-5.156189
	c-0.2612305,3.3746948-0.130127,6.6159058,0.3901367,9.7287598c0.5158691,3.1133423,1.4897461,5.9044189,2.918335,8.3668213
	c1.4251709,2.4658203,3.307373,4.4752808,5.6431885,6.0322342c2.3345947,1.5564575,5.1860352,2.5291748,8.5612793,2.9182739
	c5.4475098,0.5203247,10.3430176,0.1306763,14.6899414-1.1672974c4.3444824-1.295105,8.2028809-3.1773148,11.5778809-5.6425858
	c3.3708496-2.4630127,6.322998-5.3812866,8.8535156-8.7559204c2.5290527-3.3718872,4.699707-6.9382935,6.517334-10.7020874
	c0.0354004-0.0709839,0.0722656-0.1329956,0.1079102-0.2024536c0.0300293-0.0629883,0.0539551-0.1235352,0.0842285-0.1866455
	c1.9458008-4.1500244,4.184082-8.5280151,6.7133789-13.1339111c2.5290527-4.6030884,5.2834473-9.1755981,8.2695313-13.7175903
	c3.7609863-5.7064819,7.8464355-10.1483765,12.2578125-13.3284912c4.4091797-3.1773071,8.2368164-4.9921875,11.480957-5.4485474
	c3.2404785-0.453064,5.3806152,0.3591309,6.420166,2.4324341c1.0371094,2.0767212,0.1276855,5.5153198-2.723877,10.3123779
	c-3.2438965,5.3207397-5.0288086,10.1517334-5.3510742,14.4963379c-0.324707,4.3474731-0.032959,8.5308838,0.8754883,12.550293
	c0.9057617,4.0222778,2.0097656,8.0750122,3.3083496,12.1611938c1.295166,4.0861206,1.8786621,8.5308838,1.7509766,13.3284912
	c0,1.0394897-0.0666504,1.9788818-0.1945801,2.8209839c-0.1311035,0.84552-0.3256836,1.6542435-0.5834961,2.4324417
	c3.7607422-3.1133499,7.0354004-6.7431107,9.8259277-10.896553c1.2207031-1.8168945,2.3754883-3.722168,3.4846191-5.6887207
	c0.0334473-0.0693359,0.0568848-0.1292725,0.0925293-0.2005615c0.909668-1.949585,1.8554688-3.7590942,2.8342285-5.4408569
	c0.3630371-0.7593384,0.7314453-1.5113525,1.0800781-2.2902222c0.5168457-1.295105,1.1672363-2.3345947,1.9453125-3.1133423
	c0.5805664-0.5805664,0.9866943-1.0337296,1.4404297-1.3490601c0.0561523-0.0670776,0.2873535-0.2929688,0.34375-0.359375
	c2.7141113-3.2035522,7.6030273-4.0020752,11.6237793-4.2213745c3.3669434-0.1065674,6.355957,0.7896118,8.9641113,2.6890869
	c2.6069336,1.9023438,4.7253418,4.4000854,6.355957,7.496582c1.6293945,3.0964966,2.6601563,6.5747681,3.0959473,10.4301147
	C457.5792847,120.2334976,457.2533569,124.0632095,456.1686401,127.8650284z M305.4662476,98.5769424
	c1.1672363,1.1672974,2.9487305,2.2706909,5.3500977,3.3079224c2.3991699,1.0395508,5.7404785,1.2340698,10.0206299,0.5836792
	c2.3358154-0.2584839,4.6036377-1.2317505,6.8104248-2.9188232c2.2045898-1.6842651,4.1500244-3.6636963,5.8376465-5.9343872
	c1.6843262-2.2684937,3.0800781-4.7003784,4.1828613-7.296814c1.1005859-2.593689,1.7521973-5.05896,1.9465332-7.394104
	c0.1948242-2.3346558-0.1943359-4.3446045-1.1682129-6.0316772c-0.9729004-1.6842041-2.6264648-2.7243042-4.9611816-3.1134033
	c-3.5030518-0.5169067-6.7797852-0.0639038-9.8259277,1.3618774c-3.0495605,1.4291382-5.8071289,3.5025024-8.2695313,6.2267456
	c-2.4658203,2.7237549-4.5427246,5.9344482-6.2268066,9.6314697
	C307.4750366,90.6964493,306.2444458,94.5575333,305.4662476,98.5769424z M270.0543823,70.5575333
	c2.9827881-4.1500244,6.0322266-8.689209,9.1451416-13.6203003c3.112793-4.9282837,6.1600342-9.8565063,9.1450195-14.7875977
	c5.7064209-9.4674683,9.3397217-16.7976685,10.8961182-21.9877319c1.5563965-5.1861563,1.6547852-7.8465567,0.291748-7.9772329
	c-1.3618164-0.1278076-3.8604736,2.4319458-7.4914551,7.6853628c-3.6330566,5.2540283-7.6552734,13.5236206-12.0632324,24.8087769
	l-8.9504395,23.3495483L270.0543823,70.5575333z M137.3566437,48.9595108
	c-2.986084,4.4113159-5.8376465,9.0477295-8.5614014,13.9121094c-2.7248611,4.8649292-5.3208084,9.7293091-7.7832108,14.5936279
	c-2.4658203,4.8643799-4.7032471,9.6314697-6.7132568,14.3012695c-2.0133057,4.6697998-3.7947998,9.0811157-5.3511963,13.2312012
	c-5.7098389,15.1773071-7.62146,23.0577469-5.7393799,23.6414261c1.8789063,0.5836792,7.0344238-7.2301102,15.4680176-23.446846
	c1.4263916-2.7237549,2.9827881-6.2262573,4.6704102-10.506958c1.6843262-4.2807007,3.3718262-8.9505005,5.0583572-14.0093994
	c1.6853027-5.0595093,3.3085938-10.3129272,4.8649902-15.7609863
	C134.8263702,59.4669571,136.1881866,54.1495743,137.3566437,48.9595108z M390.4933472,120.7586441
	c-1.0395508-4.6697998-2.4013672-9.3701172-4.0856934-14.1066895c-1.6877441-4.7337036-3.0834961-9.3701172-4.1838379-13.9126587
	c-1.1040039-4.5391846-0.9423828-8.5614624,0.4863281-12.0633545c-1.6877441,3.112793-3.6660156,6.5180664-5.9338379,10.2150879
	c-2.2712402,3.6970215-4.3786621,7.5247192-6.3242188,11.4802246c-1.9455566,3.958374-3.4057617,8.0111084-4.378418,12.1606445
	c-0.9729004,4.1534424-1.0700684,8.1723022-0.291748,12.0639038c0.6479492,3.5025101,2.0427246,6.3240433,4.1838379,8.464119
	c2.1401367,2.140625,4.4748535,3.5358887,7.005127,4.1834106c2.5290527,0.651001,4.9914551,0.4863892,7.3928223-0.4863892
	c2.3991699-0.9727173,4.184082-2.8215332,5.3513184-5.5452881
	C391.2714233,129.5813446,391.5304565,125.4284439,390.4933472,120.7586441z"/>
</svg>
